{
  "accessors": [
    {
      "bufferView": 2,
      "componentType": 5126,
      "count": 31909,
      "max": [
        4.104747772216797,
        12.734818458557129,
        1.3155570030212402
      ],
      "min": [
        -3.294658899307251,
        9.227156639099121,
        -2.060045003890991
      ],
      "type": "VEC3"
    },
    {
      "bufferView": 2,
      "byteOffset": 382908,
      "componentType": 5126,
      "count": 31909,
      "max": [
        0.999995768070221,
        0.9999222159385681,
        0.9999483227729797
      ],
      "min": [
        -0.9998841881752014,
        -0.9998778104782104,
        -0.9993405938148499
      ],
      "type": "VEC3"
    },
    {
      "bufferView": 1,
      "componentType": 5126,
      "count": 31909,
      "max": [
        0.9930869936943054,
        0.9999899864196777
      ],
      "min": [
        5.2999999752501026e-05,
        1.1000000085914508e-05
      ],
      "type": "VEC2"
    },
    {
      "bufferView": 0,
      "componentType": 5125,
      "count": 149997,
      "type": "SCALAR"
    }
  ],
  "asset": {
    "extras": {
      "author": "Przemek Gesicki - DigitWorlds (https://sketchfab.com/DigitWorlds)",
      "license": "CC-BY-NC-4.0 (http://creativecommons.org/licenses/by-nc/4.0/)",
      "source": "https://sketchfab.com/3d-models/salomon-speed-cross-pro-by-digitworldscom-05049ce041f141e1977f0fb070be5dc8",
      "title": "Salomon speed cross pro by DigitWorlds.com"
    },
    "generator": "Sketchfab-12.66.0",
    "version": "2.0"
  },
  "bufferViews": [
    {
      "buffer": 0,
      "byteLength": 599988,
      "name": "floatBufferViews",
      "target": 34963
    },
    {
      "buffer": 0,
      "byteLength": 255272,
      "byteOffset": 599988,
      "byteStride": 8,
      "name": "floatBufferViews",
      "target": 34962
    },
    {
      "buffer": 0,
      "byteLength": 765816,
      "byteOffset": 855260,
      "byteStride": 12,
      "name": "floatBufferViews",
      "target": 34962
    }
  ],
  "buffers": [
    {
      "byteLength": 1621076,
      "uri": "scene.bin"
    }
  ],
  "extensionsUsed": [
    "KHR_materials_unlit"
  ],
  "images": [
    {
      "uri": "textures/material_baseColor.jpeg"
    }
  ],
  "materials": [
    {
      "doubleSided": true,
      "extensions": {
        "KHR_materials_unlit": {}
      },
      "name": "material",
      "pbrMetallicRoughness": {
        "baseColorTexture": {
          "index": 0
        },
        "metallicFactor": 0.0
      }
    }
  ],
  "meshes": [
    {
      "name": "Object_0",
      "primitives": [
        {
          "attributes": {
            "NORMAL": 1,
            "POSITION": 0,
            "TEXCOORD_0": 2
          },
          "indices": 3,
          "material": 0,
          "mode": 4
        }
      ]
    }
  ],
  "nodes": [
    {
      "children": [
        1
      ],
      "matrix": [
        0.9935407638549805,
        -0.07962557673454283,
        -0.08084862679243089,
        0.0,
        -0.11197195202112198,
        -0.5723214149475095,
        -0.812348783016205,
        0.0,
        0.018412336707115173,
        0.8161544203758241,
        -0.5775404572486875,
        0.0,
        1.193729043006897,
        6.88199806213379,
        -2.0161242485046373,
        1.0
      ],
      "name": "Sketchfab_model"
    },
    {
      "children": [
        2
      ],
      "name": "4.obj.cleaner.materialmerger.gles"
    },
    {
      "mesh": 0,
      "name": "Object_2"
    }
  ],
  "samplers": [
    {
      "magFilter": 9729,
      "minFilter": 9987,
      "wrapS": 10497,
      "wrapT": 10497
    }
  ],
  "scene": 0,
  "scenes": [
    {
      "name": "Sketchfab_Scene",
      "nodes": [
        0
      ]
    }
  ],
  "textures": [
    {
      "sampler": 0,
      "source": 0
    }
  ]
}
